<mxfile host="app.diagrams.net" modified="2022-05-10T13:19:09.837Z" agent="5.0 (Windows NT 10.0; Win64; x64) AppleWebKit/537.36 (KHTML, like Gecko) Chrome/101.0.4951.54 Safari/537.36 Edg/101.0.1210.39" etag="cEmjb9FvZlz-wdPC2BWX" version="18.0.2" type="github">
  <diagram name="Page-1" id="c4acf3e9-155e-7222-9cf6-157b1a14988f">
    <mxGraphModel dx="780" dy="1112" grid="0" gridSize="10" guides="1" tooltips="1" connect="1" arrows="1" fold="1" page="1" pageScale="1" pageWidth="850" pageHeight="1100" background="none" math="0" shadow="0">
      <root>
        <mxCell id="0" />
        <mxCell id="1" parent="0" />
        <mxCell id="WbIAH5NhUpsZrci3t3Fo-1" value="Payload" style="rounded=0;whiteSpace=wrap;html=1;fillColor=#6d8764;strokeColor=#3A5431;fontColor=#ffffff;" vertex="1" parent="1">
          <mxGeometry x="570" y="530" width="80" height="30" as="geometry" />
        </mxCell>
        <mxCell id="WbIAH5NhUpsZrci3t3Fo-2" value="IPsec Tunnel" style="text;html=1;strokeColor=none;fillColor=none;align=center;verticalAlign=middle;whiteSpace=wrap;rounded=0;fontSize=12;fontStyle=1" vertex="1" parent="1">
          <mxGeometry x="205" y="497" width="140" height="30" as="geometry" />
        </mxCell>
        <mxCell id="WbIAH5NhUpsZrci3t3Fo-3" value="TCP Header" style="rounded=0;whiteSpace=wrap;html=1;fillColor=#6d8764;strokeColor=#3A5431;fontColor=#ffffff;" vertex="1" parent="1">
          <mxGeometry x="510" y="530" width="60" height="30" as="geometry" />
        </mxCell>
        <mxCell id="WbIAH5NhUpsZrci3t3Fo-4" value="IP Header" style="rounded=0;whiteSpace=wrap;html=1;fillColor=#6d8764;strokeColor=#3A5431;fontColor=#ffffff;" vertex="1" parent="1">
          <mxGeometry x="460" y="530" width="50" height="30" as="geometry" />
        </mxCell>
        <mxCell id="WbIAH5NhUpsZrci3t3Fo-5" value="ESP HEADER" style="rounded=0;whiteSpace=wrap;html=1;fillColor=#e3c800;strokeColor=#B09500;fontColor=#000000;" vertex="1" parent="1">
          <mxGeometry x="390" y="530" width="70" height="30" as="geometry" />
        </mxCell>
        <mxCell id="WbIAH5NhUpsZrci3t3Fo-6" value="ESP &lt;br&gt;Tail" style="rounded=0;whiteSpace=wrap;html=1;fillColor=#e3c800;strokeColor=#B09500;fontColor=#000000;" vertex="1" parent="1">
          <mxGeometry x="650" y="530" width="60" height="30" as="geometry" />
        </mxCell>
        <mxCell id="WbIAH5NhUpsZrci3t3Fo-7" value="AH&lt;br&gt;Header" style="rounded=0;whiteSpace=wrap;html=1;fillColor=#f0a30a;strokeColor=#BD7000;fontColor=#000000;" vertex="1" parent="1">
          <mxGeometry x="320" y="530" width="70" height="30" as="geometry" />
        </mxCell>
        <mxCell id="WbIAH5NhUpsZrci3t3Fo-8" value="ESP &lt;br&gt;Auth Data" style="rounded=0;whiteSpace=wrap;html=1;fillColor=#e3c800;strokeColor=#B09500;fontColor=#000000;" vertex="1" parent="1">
          <mxGeometry x="700" y="530" width="70" height="30" as="geometry" />
        </mxCell>
        <mxCell id="WbIAH5NhUpsZrci3t3Fo-9" value="New IP&lt;br&gt;Header" style="rounded=0;whiteSpace=wrap;html=1;fillColor=#76608a;strokeColor=#432D57;fontColor=#ffffff;" vertex="1" parent="1">
          <mxGeometry x="250" y="530" width="70" height="30" as="geometry" />
        </mxCell>
        <mxCell id="WbIAH5NhUpsZrci3t3Fo-10" value="Payload" style="rounded=0;whiteSpace=wrap;html=1;fillColor=#6d8764;strokeColor=#3A5431;fontColor=#ffffff;" vertex="1" parent="1">
          <mxGeometry x="550" y="620" width="100" height="30" as="geometry" />
        </mxCell>
        <mxCell id="WbIAH5NhUpsZrci3t3Fo-11" value="IPsec Transport" style="text;html=1;strokeColor=none;fillColor=none;align=center;verticalAlign=middle;whiteSpace=wrap;rounded=0;fontSize=12;fontStyle=1" vertex="1" parent="1">
          <mxGeometry x="215" y="588" width="140" height="30" as="geometry" />
        </mxCell>
        <mxCell id="WbIAH5NhUpsZrci3t3Fo-12" value="TCP Header" style="rounded=0;whiteSpace=wrap;html=1;fillColor=#6d8764;strokeColor=#3A5431;fontColor=#ffffff;" vertex="1" parent="1">
          <mxGeometry x="460" y="620" width="90" height="30" as="geometry" />
        </mxCell>
        <mxCell id="WbIAH5NhUpsZrci3t3Fo-13" value="IP Header" style="rounded=0;whiteSpace=wrap;html=1;fillColor=#6d8764;strokeColor=#3A5431;fontColor=#ffffff;" vertex="1" parent="1">
          <mxGeometry x="250" y="620" width="70" height="30" as="geometry" />
        </mxCell>
        <mxCell id="WbIAH5NhUpsZrci3t3Fo-14" value="ESP HEADER" style="rounded=0;whiteSpace=wrap;html=1;fillColor=#e3c800;strokeColor=#B09500;fontColor=#000000;" vertex="1" parent="1">
          <mxGeometry x="390" y="620" width="70" height="30" as="geometry" />
        </mxCell>
        <mxCell id="WbIAH5NhUpsZrci3t3Fo-15" value="ESP &lt;br&gt;Tail" style="rounded=0;whiteSpace=wrap;html=1;fillColor=#e3c800;strokeColor=#B09500;fontColor=#000000;" vertex="1" parent="1">
          <mxGeometry x="650" y="620" width="60" height="30" as="geometry" />
        </mxCell>
        <mxCell id="WbIAH5NhUpsZrci3t3Fo-16" value="AH&lt;br&gt;Header" style="rounded=0;whiteSpace=wrap;html=1;fillColor=#f0a30a;strokeColor=#BD7000;fontColor=#000000;" vertex="1" parent="1">
          <mxGeometry x="320" y="620" width="70" height="30" as="geometry" />
        </mxCell>
        <mxCell id="WbIAH5NhUpsZrci3t3Fo-17" value="ESP &lt;br&gt;Auth Data" style="rounded=0;whiteSpace=wrap;html=1;fillColor=#e3c800;strokeColor=#B09500;fontColor=#000000;" vertex="1" parent="1">
          <mxGeometry x="700" y="620" width="70" height="30" as="geometry" />
        </mxCell>
      </root>
    </mxGraphModel>
  </diagram>
</mxfile>
